<?xml version="1.0" standalone="no"?>
<!DOCTYPE svg PUBLIC "-//W3C//DTD SVG 20010904//EN"
 "http://www.w3.org/TR/2001/REC-SVG-20010904/DTD/svg10.dtd">
<svg version="1.0" xmlns="http://www.w3.org/2000/svg"
 width="35.000000pt" height="35.000000pt" viewBox="0 0 512.000000 512.000000"
 preserveAspectRatio="xMidYMid meet">

<g transform="translate(0.000000,512.000000) scale(0.100000,-0.100000)"
fill="#ffff" stroke="none">
<path d="M2488 4030 c-48 -38 -49 -41 -46 -622 l3 -548 33 -32 c28 -28 39 -33
82 -33 43 0 54 5 82 33 l33 32 3 548 c2 398 -1 554 -9 575 -19 44 -55 67 -109
67 -32 0 -55 -6 -72 -20z"/>
<path d="M1970 3930 c-43 -12 -152 -70 -235 -125 -327 -214 -557 -556 -642
-955 -26 -121 -26 -459 0 -580 128 -601 576 -1049 1177 -1177 121 -26 459 -26
580 0 205 44 417 136 583 254 104 73 265 235 340 341 118 164 210 376 254 582
26 121 26 459 0 580 -64 298 -202 554 -412 765 -115 115 -221 193 -360 266
-132 70 -191 69 -235 -4 -41 -67 -14 -139 66 -176 367 -171 631 -515 708 -920
21 -109 21 -333 0 -442 -49 -259 -165 -480 -349 -664 -184 -184 -404 -300
-664 -349 -109 -21 -333 -21 -442 0 -396 75 -723 321 -902 679 -89 177 -127
346 -127 555 0 344 124 645 365 886 93 93 242 200 349 250 91 43 119 110 76
181 -28 47 -80 68 -130 53z"/>
</g>
</svg>
